<svg width="16px" height="16px" viewBox="0 0 24 24" fill="#000">
	<g transform="translate(0.000000,24.000000) scale(0.002194,-0.002194)" stroke="none">
		<path d="M8491 10928 c-152 -19 -348 -99 -474 -194 -34 -26 -344 -329 -690 -673 l-627 -626 1362 -1362 c750 -750 1365 -1363 1368 -1363 15 0 1256 1246 1298 1303 262 355 278 810 41 1177 -54 85 -134 169 -742 778 -375 376 -719 713 -763 748 -220 173 -491 247 -773 212z" />
		<path d="M3241 5976 l-2964 -2964 -139 -1234 c-131 -1162 -139 -1238 -129 -1322 26 -228 204 -415 424 -445 82 -12 64 -13 1510 148 l1058 117 2970 2970 2969 2969 -1362 1362 c-750 750 -1365 1363 -1368 1363 -3 0 -1339 -1334 -2969 -2964z" />
	</g>
</svg>